<svg width="228" height="183" viewBox="0 0 228 183" fill="none" xmlns="http://www.w3.org/2000/svg">
<path d="M5.904 39.2H21.744V80.24H38.736V39.2H54.576V140H38.736V94.64H21.744V140H5.904V39.2ZM89.4353 39.2H105.275V80.24H122.267V39.2H138.107V140H122.267V94.64H105.275V140H89.4353V39.2ZM172.967 39.2H196.295C204.167 39.2 210.071 41.312 214.007 45.536C217.943 49.76 219.911 55.952 219.911 64.112V74.048C219.911 82.208 217.943 88.4 214.007 92.624C210.071 96.848 204.167 98.96 196.295 98.96H188.807V140H172.967V39.2ZM196.295 84.56C198.887 84.56 200.807 83.84 202.055 82.4C203.399 80.96 204.07 78.512 204.07 75.056V63.104C204.07 59.648 203.399 57.2 202.055 55.76C200.807 54.32 198.887 53.6 196.295 53.6H188.807V84.56H196.295Z" fill="#8F00FF"/>
<path d="M10.904 29.2H26.744V70.24H43.736V29.2H59.576V130H43.736V84.64H26.744V130H10.904V29.2ZM94.4353 29.2H110.275V70.24H127.267V29.2H143.107V130H127.267V84.64H110.275V130H94.4353V29.2ZM177.967 29.2H201.295C209.167 29.2 215.071 31.312 219.007 35.536C222.943 39.76 224.911 45.952 224.911 54.112V64.048C224.911 72.208 222.943 78.4 219.007 82.624C215.071 86.848 209.167 88.96 201.295 88.96H193.807V130H177.967V29.2ZM201.295 74.56C203.887 74.56 205.807 73.84 207.055 72.4C208.399 70.96 209.07 68.512 209.07 65.056V53.104C209.07 49.648 208.399 47.2 207.055 45.76C205.807 44.32 203.887 43.6 201.295 43.6H193.807V74.56H201.295Z" fill="black"/>
</svg>
