<svg width="617" height="288" viewBox="0 0 617 288" fill="none" xmlns="http://www.w3.org/2000/svg">
<path d="M25.3798 177.8H40.9318C46.1798 177.8 50.1158 179.208 52.7398 182.024C55.3638 184.84 56.6758 188.968 56.6758 194.408V201.032C56.6758 206.472 55.3638 210.6 52.7398 213.416C50.1158 216.232 46.1798 217.64 40.9318 217.64H35.9398V245H25.3798V177.8ZM40.9318 208.04C42.6598 208.04 43.9398 207.56 44.7718 206.6C45.6678 205.64 46.1158 204.008 46.1158 201.704V193.736C46.1158 191.432 45.6678 189.8 44.7718 188.84C43.9398 187.88 42.6598 187.4 40.9318 187.4H35.9398V208.04H40.9318ZM77.291 177.8H87.851V205.16H99.179V177.8H109.739V245H99.179V214.76H87.851V245H77.291V177.8ZM147.748 245.96C142.564 245.96 138.596 244.488 135.844 241.544C133.092 238.6 131.716 234.44 131.716 229.064V193.736C131.716 188.36 133.092 184.2 135.844 181.256C138.596 178.312 142.564 176.84 147.748 176.84C152.932 176.84 156.9 178.312 159.652 181.256C162.404 184.2 163.78 188.36 163.78 193.736V229.064C163.78 234.44 162.404 238.6 159.652 241.544C156.9 244.488 152.932 245.96 147.748 245.96ZM147.748 236.36C151.396 236.36 153.22 234.152 153.22 229.736V193.064C153.22 188.648 151.396 186.44 147.748 186.44C144.1 186.44 142.276 188.648 142.276 193.064V229.736C142.276 234.152 144.1 236.36 147.748 236.36ZM193.682 187.4H182.642V177.8H215.282V187.4H204.242V245H193.682V187.4ZM250.164 245.96C244.98 245.96 241.012 244.488 238.26 241.544C235.508 238.6 234.132 234.44 234.132 229.064V193.736C234.132 188.36 235.508 184.2 238.26 181.256C241.012 178.312 244.98 176.84 250.164 176.84C255.348 176.84 259.316 178.312 262.068 181.256C264.82 184.2 266.196 188.36 266.196 193.736V229.064C266.196 234.44 264.82 238.6 262.068 241.544C259.316 244.488 255.348 245.96 250.164 245.96ZM250.164 236.36C253.812 236.36 255.636 234.152 255.636 229.736V193.064C255.636 188.648 253.812 186.44 250.164 186.44C246.516 186.44 244.692 188.648 244.692 193.064V229.736C244.692 234.152 246.516 236.36 250.164 236.36ZM303.193 245.96C298.073 245.96 294.169 244.52 291.481 241.64C288.793 238.696 287.449 234.504 287.449 229.064V193.736C287.449 188.296 288.793 184.136 291.481 181.256C294.169 178.312 298.073 176.84 303.193 176.84C308.313 176.84 312.217 178.312 314.905 181.256C317.593 184.136 318.937 188.296 318.937 193.736V199.496H308.953V193.064C308.953 188.648 307.129 186.44 303.481 186.44C299.833 186.44 298.009 188.648 298.009 193.064V229.832C298.009 234.184 299.833 236.36 303.481 236.36C307.129 236.36 308.953 234.184 308.953 229.832V216.68H303.673V207.08H318.937V229.064C318.937 234.504 317.593 238.696 314.905 241.64C312.217 244.52 308.313 245.96 303.193 245.96ZM340.597 177.8H356.245C361.685 177.8 365.653 179.08 368.149 181.64C370.645 184.136 371.893 188.008 371.893 193.256V197.384C371.893 204.36 369.589 208.776 364.981 210.632V210.824C367.541 211.592 369.333 213.16 370.357 215.528C371.445 217.896 371.989 221.064 371.989 225.032V236.84C371.989 238.76 372.053 240.328 372.181 241.544C372.309 242.696 372.629 243.848 373.141 245H362.389C362.005 243.912 361.749 242.888 361.621 241.928C361.493 240.968 361.429 239.24 361.429 236.744V224.456C361.429 221.384 360.917 219.24 359.893 218.024C358.933 216.808 357.237 216.2 354.805 216.2H351.157V245H340.597V177.8ZM354.997 206.6C357.109 206.6 358.677 206.056 359.701 204.968C360.789 203.88 361.333 202.056 361.333 199.496V194.312C361.333 191.88 360.885 190.12 359.989 189.032C359.157 187.944 357.813 187.4 355.957 187.4H351.157V206.6H354.997ZM402.356 177.8H416.66L427.604 245H417.044L415.124 231.656V231.848H403.124L401.204 245H391.412L402.356 177.8ZM413.876 222.728L409.172 189.512H408.98L404.372 222.728H413.876ZM447.607 177.8H463.159C468.407 177.8 472.343 179.208 474.967 182.024C477.591 184.84 478.903 188.968 478.903 194.408V201.032C478.903 206.472 477.591 210.6 474.967 213.416C472.343 216.232 468.407 217.64 463.159 217.64H458.167V245H447.607V177.8ZM463.159 208.04C464.887 208.04 466.167 207.56 466.999 206.6C467.895 205.64 468.343 204.008 468.343 201.704V193.736C468.343 191.432 467.895 189.8 466.999 188.84C466.167 187.88 464.887 187.4 463.159 187.4H458.167V208.04H463.159ZM499.519 177.8H510.079V205.16H521.407V177.8H531.967V245H521.407V214.76H510.079V245H499.519V177.8ZM564.407 216.392L551.639 177.8H562.871L570.071 202.472H570.263L577.463 177.8H587.735L574.967 216.392V245H564.407V216.392Z" fill="black"/>
<path d="M42.5854 37.8H53.1454V65.16H64.4734V37.8H75.0334V105H64.4734V74.76H53.1454V105H42.5854V37.8ZM113.042 105.96C107.858 105.96 103.89 104.488 101.138 101.544C98.3859 98.6 97.0099 94.44 97.0099 89.064V53.736C97.0099 48.36 98.3859 44.2 101.138 41.256C103.89 38.312 107.858 36.84 113.042 36.84C118.226 36.84 122.194 38.312 124.946 41.256C127.698 44.2 129.074 48.36 129.074 53.736V89.064C129.074 94.44 127.698 98.6 124.946 101.544C122.194 104.488 118.226 105.96 113.042 105.96ZM113.042 96.36C116.69 96.36 118.514 94.152 118.514 89.736V53.064C118.514 48.648 116.69 46.44 113.042 46.44C109.394 46.44 107.57 48.648 107.57 53.064V89.736C107.57 94.152 109.394 96.36 113.042 96.36ZM158.976 47.4H147.936V37.8H180.576V47.4H169.536V105H158.976V47.4ZM230.824 37.8H241.384V65.16H252.712V37.8H263.272V105H252.712V74.76H241.384V105H230.824V37.8ZM301.281 105.96C296.097 105.96 292.129 104.488 289.377 101.544C286.625 98.6 285.249 94.44 285.249 89.064V53.736C285.249 48.36 286.625 44.2 289.377 41.256C292.129 38.312 296.097 36.84 301.281 36.84C306.465 36.84 310.433 38.312 313.185 41.256C315.937 44.2 317.313 48.36 317.313 53.736V89.064C317.313 94.44 315.937 98.6 313.185 101.544C310.433 104.488 306.465 105.96 301.281 105.96ZM301.281 96.36C304.929 96.36 306.753 94.152 306.753 89.736V53.064C306.753 48.648 304.929 46.44 301.281 46.44C297.633 46.44 295.809 48.648 295.809 53.064V89.736C295.809 94.152 297.633 96.36 301.281 96.36ZM354.694 105.96C349.574 105.96 345.67 104.52 342.982 101.64C340.294 98.696 338.95 94.504 338.95 89.064V37.8H349.51V89.832C349.51 92.136 349.958 93.8 350.854 94.824C351.814 95.848 353.158 96.36 354.886 96.36C356.614 96.36 357.926 95.848 358.822 94.824C359.782 93.8 360.262 92.136 360.262 89.832V37.8H370.438V89.064C370.438 94.504 369.094 98.696 366.406 101.64C363.718 104.52 359.814 105.96 354.694 105.96ZM392.839 37.8H406.087L416.359 78.024H416.551V37.8H425.959V105H415.111L402.439 55.944H402.247V105H392.839V37.8ZM448.688 37.8H464.816C470.064 37.8 474 39.208 476.624 42.024C479.248 44.84 480.56 48.968 480.56 54.408V88.392C480.56 93.832 479.248 97.96 476.624 100.776C474 103.592 470.064 105 464.816 105H448.688V37.8ZM464.624 95.4C466.352 95.4 467.664 94.888 468.56 93.864C469.52 92.84 470 91.176 470 88.872V53.928C470 51.624 469.52 49.96 468.56 48.936C467.664 47.912 466.352 47.4 464.624 47.4H459.248V95.4H464.624ZM516.296 105.96C511.176 105.96 507.304 104.52 504.68 101.64C502.056 98.696 500.744 94.504 500.744 89.064V85.224H510.728V89.832C510.728 94.184 512.552 96.36 516.2 96.36C517.992 96.36 519.336 95.848 520.232 94.824C521.192 93.736 521.672 92.008 521.672 89.64C521.672 86.824 521.032 84.36 519.752 82.248C518.472 80.072 516.104 77.48 512.648 74.472C508.296 70.632 505.256 67.176 503.528 64.104C501.8 60.968 500.936 57.448 500.936 53.544C500.936 48.232 502.28 44.136 504.968 41.256C507.656 38.312 511.56 36.84 516.68 36.84C521.736 36.84 525.544 38.312 528.104 41.256C530.728 44.136 532.04 48.296 532.04 53.736V56.52H522.056V53.064C522.056 50.76 521.608 49.096 520.712 48.072C519.816 46.984 518.504 46.44 516.776 46.44C513.256 46.44 511.496 48.584 511.496 52.872C511.496 55.304 512.136 57.576 513.416 59.688C514.76 61.8 517.16 64.36 520.616 67.368C525.032 71.208 528.072 74.696 529.736 77.832C531.4 80.968 532.232 84.648 532.232 88.872C532.232 94.376 530.856 98.6 528.104 101.544C525.416 104.488 521.48 105.96 516.296 105.96Z" fill="#6100FF"/>
<path d="M28.8798 171.8H44.4318C49.6798 171.8 53.6158 173.208 56.2398 176.024C58.8638 178.84 60.1758 182.968 60.1758 188.408V195.032C60.1758 200.472 58.8638 204.6 56.2398 207.416C53.6158 210.232 49.6798 211.64 44.4318 211.64H39.4398V239H28.8798V171.8ZM44.4318 202.04C46.1598 202.04 47.4398 201.56 48.2718 200.6C49.1678 199.64 49.6158 198.008 49.6158 195.704V187.736C49.6158 185.432 49.1678 183.8 48.2718 182.84C47.4398 181.88 46.1598 181.4 44.4318 181.4H39.4398V202.04H44.4318ZM80.791 171.8H91.351V199.16H102.679V171.8H113.239V239H102.679V208.76H91.351V239H80.791V171.8ZM151.248 239.96C146.064 239.96 142.096 238.488 139.344 235.544C136.592 232.6 135.216 228.44 135.216 223.064V187.736C135.216 182.36 136.592 178.2 139.344 175.256C142.096 172.312 146.064 170.84 151.248 170.84C156.432 170.84 160.4 172.312 163.152 175.256C165.904 178.2 167.28 182.36 167.28 187.736V223.064C167.28 228.44 165.904 232.6 163.152 235.544C160.4 238.488 156.432 239.96 151.248 239.96ZM151.248 230.36C154.896 230.36 156.72 228.152 156.72 223.736V187.064C156.72 182.648 154.896 180.44 151.248 180.44C147.6 180.44 145.776 182.648 145.776 187.064V223.736C145.776 228.152 147.6 230.36 151.248 230.36ZM197.182 181.4H186.142V171.8H218.782V181.4H207.742V239H197.182V181.4ZM253.664 239.96C248.48 239.96 244.512 238.488 241.76 235.544C239.008 232.6 237.632 228.44 237.632 223.064V187.736C237.632 182.36 239.008 178.2 241.76 175.256C244.512 172.312 248.48 170.84 253.664 170.84C258.848 170.84 262.816 172.312 265.568 175.256C268.32 178.2 269.696 182.36 269.696 187.736V223.064C269.696 228.44 268.32 232.6 265.568 235.544C262.816 238.488 258.848 239.96 253.664 239.96ZM253.664 230.36C257.312 230.36 259.136 228.152 259.136 223.736V187.064C259.136 182.648 257.312 180.44 253.664 180.44C250.016 180.44 248.192 182.648 248.192 187.064V223.736C248.192 228.152 250.016 230.36 253.664 230.36ZM306.693 239.96C301.573 239.96 297.669 238.52 294.981 235.64C292.293 232.696 290.949 228.504 290.949 223.064V187.736C290.949 182.296 292.293 178.136 294.981 175.256C297.669 172.312 301.573 170.84 306.693 170.84C311.813 170.84 315.717 172.312 318.405 175.256C321.093 178.136 322.437 182.296 322.437 187.736V193.496H312.453V187.064C312.453 182.648 310.629 180.44 306.981 180.44C303.333 180.44 301.509 182.648 301.509 187.064V223.832C301.509 228.184 303.333 230.36 306.981 230.36C310.629 230.36 312.453 228.184 312.453 223.832V210.68H307.173V201.08H322.437V223.064C322.437 228.504 321.093 232.696 318.405 235.64C315.717 238.52 311.813 239.96 306.693 239.96ZM344.097 171.8H359.745C365.185 171.8 369.153 173.08 371.649 175.64C374.145 178.136 375.393 182.008 375.393 187.256V191.384C375.393 198.36 373.089 202.776 368.481 204.632V204.824C371.041 205.592 372.833 207.16 373.857 209.528C374.945 211.896 375.489 215.064 375.489 219.032V230.84C375.489 232.76 375.553 234.328 375.681 235.544C375.809 236.696 376.129 237.848 376.641 239H365.889C365.505 237.912 365.249 236.888 365.121 235.928C364.993 234.968 364.929 233.24 364.929 230.744V218.456C364.929 215.384 364.417 213.24 363.393 212.024C362.433 210.808 360.737 210.2 358.305 210.2H354.657V239H344.097V171.8ZM358.497 200.6C360.609 200.6 362.177 200.056 363.201 198.968C364.289 197.88 364.833 196.056 364.833 193.496V188.312C364.833 185.88 364.385 184.12 363.489 183.032C362.657 181.944 361.313 181.4 359.457 181.4H354.657V200.6H358.497ZM405.856 171.8H420.16L431.104 239H420.544L418.624 225.656V225.848H406.624L404.704 239H394.912L405.856 171.8ZM417.376 216.728L412.672 183.512H412.48L407.872 216.728H417.376ZM451.107 171.8H466.659C471.907 171.8 475.843 173.208 478.467 176.024C481.091 178.84 482.403 182.968 482.403 188.408V195.032C482.403 200.472 481.091 204.6 478.467 207.416C475.843 210.232 471.907 211.64 466.659 211.64H461.667V239H451.107V171.8ZM466.659 202.04C468.387 202.04 469.667 201.56 470.499 200.6C471.395 199.64 471.843 198.008 471.843 195.704V187.736C471.843 185.432 471.395 183.8 470.499 182.84C469.667 181.88 468.387 181.4 466.659 181.4H461.667V202.04H466.659ZM503.019 171.8H513.579V199.16H524.907V171.8H535.467V239H524.907V208.76H513.579V239H503.019V171.8ZM567.907 210.392L555.139 171.8H566.371L573.571 196.472H573.763L580.963 171.8H591.235L578.467 210.392V239H567.907V210.392Z" fill="white"/>
<path d="M28.8798 171.8V171.3H28.3798V171.8H28.8798ZM56.2398 176.024L55.874 176.365L55.874 176.365L56.2398 176.024ZM56.2398 207.416L55.874 207.075L55.874 207.075L56.2398 207.416ZM39.4398 211.64V211.14H38.9398V211.64H39.4398ZM39.4398 239V239.5H39.9398V239H39.4398ZM28.8798 239H28.3798V239.5H28.8798V239ZM48.2718 200.6L47.9062 200.259L47.8999 200.266L47.8939 200.273L48.2718 200.6ZM48.2718 182.84L47.8939 183.167L47.8999 183.174L47.9062 183.181L48.2718 182.84ZM39.4398 181.4V180.9H38.9398V181.4H39.4398ZM39.4398 202.04H38.9398V202.54H39.4398V202.04ZM28.8798 172.3H44.4318V171.3H28.8798V172.3ZM44.4318 172.3C49.5933 172.3 53.3751 173.683 55.874 176.365L56.6056 175.683C53.8564 172.733 49.7662 171.3 44.4318 171.3V172.3ZM55.874 176.365C58.3817 179.056 59.6758 183.042 59.6758 188.408H60.6758C60.6758 182.894 59.3459 178.624 56.6056 175.683L55.874 176.365ZM59.6758 188.408V195.032H60.6758V188.408H59.6758ZM59.6758 195.032C59.6758 200.398 58.3817 204.384 55.874 207.075L56.6056 207.757C59.3459 204.816 60.6758 200.546 60.6758 195.032H59.6758ZM55.874 207.075C53.3751 209.757 49.5933 211.14 44.4318 211.14V212.14C49.7662 212.14 53.8564 210.707 56.6056 207.757L55.874 207.075ZM44.4318 211.14H39.4398V212.14H44.4318V211.14ZM38.9398 211.64V239H39.9398V211.64H38.9398ZM39.4398 238.5H28.8798V239.5H39.4398V238.5ZM29.3798 239V171.8H28.3798V239H29.3798ZM44.4318 202.54C46.2499 202.54 47.6918 202.033 48.6496 200.927L47.8939 200.273C47.1877 201.087 46.0696 201.54 44.4318 201.54V202.54ZM48.6373 200.941C49.665 199.84 50.1158 198.047 50.1158 195.704H49.1158C49.1158 197.969 48.6705 199.44 47.9062 200.259L48.6373 200.941ZM50.1158 195.704V187.736H49.1158V195.704H50.1158ZM50.1158 187.736C50.1158 185.393 49.665 183.6 48.6373 182.499L47.9062 183.181C48.6705 184 49.1158 185.471 49.1158 187.736H50.1158ZM48.6496 182.513C47.6918 181.407 46.2499 180.9 44.4318 180.9V181.9C46.0696 181.9 47.1877 182.353 47.8939 183.167L48.6496 182.513ZM44.4318 180.9H39.4398V181.9H44.4318V180.9ZM38.9398 181.4V202.04H39.9398V181.4H38.9398ZM39.4398 202.54H44.4318V201.54H39.4398V202.54ZM80.791 171.8V171.3H80.291V171.8H80.791ZM91.351 171.8H91.851V171.3H91.351V171.8ZM91.351 199.16H90.851V199.66H91.351V199.16ZM102.679 199.16V199.66H103.179V199.16H102.679ZM102.679 171.8V171.3H102.179V171.8H102.679ZM113.239 171.8H113.739V171.3H113.239V171.8ZM113.239 239V239.5H113.739V239H113.239ZM102.679 239H102.179V239.5H102.679V239ZM102.679 208.76H103.179V208.26H102.679V208.76ZM91.351 208.76V208.26H90.851V208.76H91.351ZM91.351 239V239.5H91.851V239H91.351ZM80.791 239H80.291V239.5H80.791V239ZM80.791 172.3H91.351V171.3H80.791V172.3ZM90.851 171.8V199.16H91.851V171.8H90.851ZM91.351 199.66H102.679V198.66H91.351V199.66ZM103.179 199.16V171.8H102.179V199.16H103.179ZM102.679 172.3H113.239V171.3H102.679V172.3ZM112.739 171.8V239H113.739V171.8H112.739ZM113.239 238.5H102.679V239.5H113.239V238.5ZM103.179 239V208.76H102.179V239H103.179ZM102.679 208.26H91.351V209.26H102.679V208.26ZM90.851 208.76V239H91.851V208.76H90.851ZM91.351 238.5H80.791V239.5H91.351V238.5ZM81.291 239V171.8H80.291V239H81.291ZM139.344 235.544L139.709 235.203L139.709 235.203L139.344 235.544ZM139.344 175.256L139.709 175.597L139.709 175.597L139.344 175.256ZM163.152 175.256L162.786 175.597L162.786 175.597L163.152 175.256ZM163.152 235.544L162.786 235.203L162.786 235.203L163.152 235.544ZM151.248 239.46C146.16 239.46 142.341 238.018 139.709 235.203L138.978 235.885C141.85 238.958 145.967 240.46 151.248 240.46V239.46ZM139.709 235.203C137.069 232.379 135.716 228.357 135.716 223.064H134.716C134.716 228.523 136.114 232.821 138.978 235.885L139.709 235.203ZM135.716 223.064V187.736H134.716V223.064H135.716ZM135.716 187.736C135.716 182.443 137.069 178.421 139.709 175.597L138.978 174.915C136.114 177.979 134.716 182.277 134.716 187.736H135.716ZM139.709 175.597C142.341 172.782 146.16 171.34 151.248 171.34V170.34C145.967 170.34 141.85 171.842 138.978 174.915L139.709 175.597ZM151.248 171.34C156.335 171.34 160.154 172.782 162.786 175.597L163.517 174.915C160.645 171.842 156.528 170.34 151.248 170.34V171.34ZM162.786 175.597C165.426 178.421 166.78 182.443 166.78 187.736H167.78C167.78 182.277 166.381 177.979 163.517 174.915L162.786 175.597ZM166.78 187.736V223.064H167.78V187.736H166.78ZM166.78 223.064C166.78 228.357 165.426 232.379 162.786 235.203L163.517 235.885C166.381 232.821 167.78 228.523 167.78 223.064H166.78ZM162.786 235.203C160.154 238.018 156.335 239.46 151.248 239.46V240.46C156.528 240.46 160.645 238.958 163.517 235.885L162.786 235.203ZM151.248 230.86C153.176 230.86 154.705 230.272 155.737 229.022C156.754 227.792 157.22 226 157.22 223.736H156.22C156.22 225.888 155.773 227.408 154.966 228.386C154.174 229.344 152.967 229.86 151.248 229.86V230.86ZM157.22 223.736V187.064H156.22V223.736H157.22ZM157.22 187.064C157.22 184.8 156.754 183.008 155.737 181.778C154.705 180.528 153.176 179.94 151.248 179.94V180.94C152.967 180.94 154.174 181.456 154.966 182.414C155.773 183.392 156.22 184.912 156.22 187.064H157.22ZM151.248 179.94C149.319 179.94 147.79 180.528 146.758 181.778C145.741 183.008 145.276 184.8 145.276 187.064H146.276C146.276 184.912 146.722 183.392 147.529 182.414C148.321 181.456 149.528 180.94 151.248 180.94V179.94ZM145.276 187.064V223.736H146.276V187.064H145.276ZM145.276 223.736C145.276 226 145.741 227.792 146.758 229.022C147.79 230.272 149.319 230.86 151.248 230.86V229.86C149.528 229.86 148.321 229.344 147.529 228.386C146.722 227.408 146.276 225.888 146.276 223.736H145.276ZM197.182 181.4H197.682V180.9H197.182V181.4ZM186.142 181.4H185.642V181.9H186.142V181.4ZM186.142 171.8V171.3H185.642V171.8H186.142ZM218.782 171.8H219.282V171.3H218.782V171.8ZM218.782 181.4V181.9H219.282V181.4H218.782ZM207.742 181.4V180.9H207.242V181.4H207.742ZM207.742 239V239.5H208.242V239H207.742ZM197.182 239H196.682V239.5H197.182V239ZM197.182 180.9H186.142V181.9H197.182V180.9ZM186.642 181.4V171.8H185.642V181.4H186.642ZM186.142 172.3H218.782V171.3H186.142V172.3ZM218.282 171.8V181.4H219.282V171.8H218.282ZM218.782 180.9H207.742V181.9H218.782V180.9ZM207.242 181.4V239H208.242V181.4H207.242ZM207.742 238.5H197.182V239.5H207.742V238.5ZM197.682 239V181.4H196.682V239H197.682ZM241.76 235.544L242.125 235.203L242.125 235.203L241.76 235.544ZM241.76 175.256L242.125 175.597L242.125 175.597L241.76 175.256ZM265.568 175.256L265.202 175.597L265.202 175.597L265.568 175.256ZM265.568 235.544L265.202 235.203L265.202 235.203L265.568 235.544ZM253.664 239.46C248.576 239.46 244.757 238.018 242.125 235.203L241.394 235.885C244.266 238.958 248.383 240.46 253.664 240.46V239.46ZM242.125 235.203C239.485 232.379 238.132 228.357 238.132 223.064H237.132C237.132 228.523 238.53 232.821 241.394 235.885L242.125 235.203ZM238.132 223.064V187.736H237.132V223.064H238.132ZM238.132 187.736C238.132 182.443 239.485 178.421 242.125 175.597L241.394 174.915C238.53 177.979 237.132 182.277 237.132 187.736H238.132ZM242.125 175.597C244.757 172.782 248.576 171.34 253.664 171.34V170.34C248.383 170.34 244.266 171.842 241.394 174.915L242.125 175.597ZM253.664 171.34C258.751 171.34 262.57 172.782 265.202 175.597L265.933 174.915C263.061 171.842 258.944 170.34 253.664 170.34V171.34ZM265.202 175.597C267.842 178.421 269.196 182.443 269.196 187.736H270.196C270.196 182.277 268.797 177.979 265.933 174.915L265.202 175.597ZM269.196 187.736V223.064H270.196V187.736H269.196ZM269.196 223.064C269.196 228.357 267.842 232.379 265.202 235.203L265.933 235.885C268.797 232.821 270.196 228.523 270.196 223.064H269.196ZM265.202 235.203C262.57 238.018 258.751 239.46 253.664 239.46V240.46C258.944 240.46 263.061 238.958 265.933 235.885L265.202 235.203ZM253.664 230.86C255.593 230.86 257.121 230.272 258.153 229.022C259.17 227.792 259.636 226 259.636 223.736H258.636C258.636 225.888 258.189 227.408 257.382 228.386C256.59 229.344 255.383 229.86 253.664 229.86V230.86ZM259.636 223.736V187.064H258.636V223.736H259.636ZM259.636 187.064C259.636 184.8 259.17 183.008 258.153 181.778C257.121 180.528 255.593 179.94 253.664 179.94V180.94C255.383 180.94 256.59 181.456 257.382 182.414C258.189 183.392 258.636 184.912 258.636 187.064H259.636ZM253.664 179.94C251.735 179.94 250.206 180.528 249.174 181.778C248.157 183.008 247.692 184.8 247.692 187.064H248.692C248.692 184.912 249.138 183.392 249.945 182.414C250.737 181.456 251.945 180.94 253.664 180.94V179.94ZM247.692 187.064V223.736H248.692V187.064H247.692ZM247.692 223.736C247.692 226 248.157 227.792 249.174 229.022C250.206 230.272 251.735 230.86 253.664 230.86V229.86C251.945 229.86 250.737 229.344 249.945 228.386C249.138 227.408 248.692 225.888 248.692 223.736H247.692ZM294.981 235.64L294.612 235.977L294.616 235.981L294.981 235.64ZM294.981 175.256L295.347 175.597L295.35 175.593L294.981 175.256ZM318.405 175.256L318.036 175.593L318.04 175.597L318.405 175.256ZM322.437 193.496V193.996H322.937V193.496H322.437ZM312.453 193.496H311.953V193.996H312.453V193.496ZM312.453 210.68H312.953V210.18H312.453V210.68ZM307.173 210.68H306.673V211.18H307.173V210.68ZM307.173 201.08V200.58H306.673V201.08H307.173ZM322.437 201.08H322.937V200.58H322.437V201.08ZM318.405 235.64L318.771 235.981L318.774 235.977L318.405 235.64ZM306.693 239.46C301.668 239.46 297.914 238.049 295.347 235.299L294.616 235.981C297.424 238.991 301.478 240.46 306.693 240.46V239.46ZM295.35 235.303C292.773 232.48 291.449 228.425 291.449 223.064H290.449C290.449 228.583 291.813 232.912 294.612 235.977L295.35 235.303ZM291.449 223.064V187.736H290.449V223.064H291.449ZM291.449 187.736C291.449 182.374 292.774 178.354 295.347 175.597L294.616 174.915C291.813 177.918 290.449 182.218 290.449 187.736H291.449ZM295.35 175.593C297.919 172.781 301.671 171.34 306.693 171.34V170.34C301.475 170.34 297.42 171.843 294.612 174.919L295.35 175.593ZM306.693 171.34C311.715 171.34 315.468 172.781 318.036 175.593L318.774 174.919C315.967 171.843 311.911 170.34 306.693 170.34V171.34ZM318.04 175.597C320.613 178.354 321.937 182.374 321.937 187.736H322.937C322.937 182.218 321.574 177.918 318.771 174.915L318.04 175.597ZM321.937 187.736V193.496H322.937V187.736H321.937ZM322.437 192.996H312.453V193.996H322.437V192.996ZM312.953 193.496V187.064H311.953V193.496H312.953ZM312.953 187.064C312.953 184.8 312.488 183.008 311.471 181.778C310.439 180.528 308.91 179.94 306.981 179.94V180.94C308.7 180.94 309.908 181.456 310.7 182.414C311.507 183.392 311.953 184.912 311.953 187.064H312.953ZM306.981 179.94C305.052 179.94 303.524 180.528 302.492 181.778C301.475 183.008 301.009 184.8 301.009 187.064H302.009C302.009 184.912 302.456 183.392 303.263 182.414C304.055 181.456 305.262 180.94 306.981 180.94V179.94ZM301.009 187.064V223.832H302.009V187.064H301.009ZM301.009 223.832C301.009 226.066 301.475 227.834 302.494 229.049C303.527 230.281 305.055 230.86 306.981 230.86V229.86C305.26 229.86 304.052 229.351 303.26 228.407C302.455 227.446 302.009 225.95 302.009 223.832H301.009ZM306.981 230.86C308.908 230.86 310.436 230.281 311.468 229.049C312.487 227.834 312.953 226.066 312.953 223.832H311.953C311.953 225.95 311.507 227.446 310.702 228.407C309.911 229.351 308.703 229.86 306.981 229.86V230.86ZM312.953 223.832V210.68H311.953V223.832H312.953ZM312.453 210.18H307.173V211.18H312.453V210.18ZM307.673 210.68V201.08H306.673V210.68H307.673ZM307.173 201.58H322.437V200.58H307.173V201.58ZM321.937 201.08V223.064H322.937V201.08H321.937ZM321.937 223.064C321.937 228.425 320.613 232.48 318.036 235.303L318.774 235.977C321.573 232.912 322.937 228.583 322.937 223.064H321.937ZM318.04 235.299C315.472 238.049 311.718 239.46 306.693 239.46V240.46C311.908 240.46 315.962 238.991 318.771 235.981L318.04 235.299ZM344.097 171.8V171.3H343.597V171.8H344.097ZM371.649 175.64L371.291 175.989L371.296 175.994L371.649 175.64ZM368.481 204.632L368.294 204.168L367.981 204.294V204.632H368.481ZM368.481 204.824H367.981V205.196L368.338 205.303L368.481 204.824ZM373.857 209.528L373.398 209.727L373.403 209.737L373.857 209.528ZM375.681 235.544L375.184 235.596L375.184 235.599L375.681 235.544ZM376.641 239V239.5H377.411L377.098 238.797L376.641 239ZM365.889 239L365.418 239.166L365.535 239.5H365.889V239ZM363.393 212.024L363.001 212.334L363.006 212.34L363.011 212.346L363.393 212.024ZM354.657 210.2V209.7H354.157V210.2H354.657ZM354.657 239V239.5H355.157V239H354.657ZM344.097 239H343.597V239.5H344.097V239ZM363.201 198.968L362.848 198.614L362.842 198.62L362.837 198.625L363.201 198.968ZM363.489 183.032L363.092 183.336L363.098 183.343L363.103 183.35L363.489 183.032ZM354.657 181.4V180.9H354.157V181.4H354.657ZM354.657 200.6H354.157V201.1H354.657V200.6ZM344.097 172.3H359.745V171.3H344.097V172.3ZM359.745 172.3C365.12 172.3 368.929 173.566 371.291 175.989L372.007 175.291C369.378 172.594 365.251 171.3 359.745 171.3V172.3ZM371.296 175.994C373.661 178.359 374.893 182.077 374.893 187.256H375.893C375.893 181.939 374.63 177.913 372.003 175.286L371.296 175.994ZM374.893 187.256V191.384H375.893V187.256H374.893ZM374.893 191.384C374.893 194.822 374.325 197.583 373.222 199.697C372.125 201.799 370.488 203.285 368.294 204.168L368.668 205.096C371.083 204.123 372.902 202.473 374.109 200.159C375.31 197.857 375.893 194.922 375.893 191.384H374.893ZM367.981 204.632V204.824H368.981V204.632H367.981ZM368.338 205.303C370.762 206.03 372.435 207.499 373.398 209.726L374.316 209.33C373.231 206.821 371.32 205.154 368.625 204.345L368.338 205.303ZM373.403 209.737C374.449 212.014 374.989 215.102 374.989 219.032H375.989C375.989 215.026 375.441 211.778 374.312 209.319L373.403 209.737ZM374.989 219.032V230.84H375.989V219.032H374.989ZM374.989 230.84C374.989 232.769 375.053 234.356 375.184 235.596L376.179 235.492C376.053 234.3 375.989 232.751 375.989 230.84H374.989ZM375.184 235.599C375.318 236.807 375.653 238.008 376.184 239.203L377.098 238.797C376.605 237.688 376.3 236.585 376.178 235.489L375.184 235.599ZM376.641 238.5H365.889V239.5H376.641V238.5ZM366.361 238.834C365.986 237.772 365.74 236.782 365.617 235.862L364.626 235.994C364.759 236.994 365.024 238.052 365.418 239.166L366.361 238.834ZM365.617 235.862C365.494 234.939 365.429 233.242 365.429 230.744H364.429C364.429 233.238 364.493 234.997 364.626 235.994L365.617 235.862ZM365.429 230.744V218.456H364.429V230.744H365.429ZM365.429 218.456C365.429 215.361 364.92 213.061 363.776 211.702L363.011 212.346C363.915 213.419 364.429 215.407 364.429 218.456H365.429ZM363.786 211.714C362.687 210.323 360.802 209.7 358.305 209.7V210.7C360.672 210.7 362.179 211.293 363.001 212.334L363.786 211.714ZM358.305 209.7H354.657V210.7H358.305V209.7ZM354.157 210.2V239H355.157V210.2H354.157ZM354.657 238.5H344.097V239.5H354.657V238.5ZM344.597 239V171.8H343.597V239H344.597ZM358.497 201.1C360.689 201.1 362.413 200.535 363.565 199.311L362.837 198.625C361.941 199.577 360.53 200.1 358.497 200.1V201.1ZM363.555 199.322C364.782 198.094 365.333 196.105 365.333 193.496H364.333C364.333 196.007 363.796 197.666 362.848 198.614L363.555 199.322ZM365.333 193.496V188.312H364.333V193.496H365.333ZM365.333 188.312C365.333 185.84 364.882 183.937 363.875 182.714L363.103 183.35C363.888 184.303 364.333 185.92 364.333 188.312H365.333ZM363.886 182.728C362.929 181.476 361.41 180.9 359.457 180.9V181.9C361.217 181.9 362.386 182.412 363.092 183.336L363.886 182.728ZM359.457 180.9H354.657V181.9H359.457V180.9ZM354.157 181.4V200.6H355.157V181.4H354.157ZM354.657 201.1H358.497V200.1H354.657V201.1ZM405.856 171.8V171.3H405.431L405.363 171.72L405.856 171.8ZM420.16 171.8L420.654 171.72L420.585 171.3H420.16V171.8ZM431.104 239V239.5H431.692L431.598 238.92L431.104 239ZM420.544 239L420.049 239.071L420.111 239.5H420.544V239ZM418.624 225.656L419.119 225.585L418.124 225.656H418.624ZM418.624 225.848V226.348H419.124V225.848H418.624ZM406.624 225.848V225.348H406.192L406.129 225.776L406.624 225.848ZM404.704 239V239.5H405.136L405.199 239.072L404.704 239ZM394.912 239L394.419 238.92L394.324 239.5H394.912V239ZM417.376 216.728V217.228H417.952L417.871 216.658L417.376 216.728ZM412.672 183.512L413.167 183.442L413.106 183.012H412.672V183.512ZM412.48 183.512V183.012H412.045L411.985 183.443L412.48 183.512ZM407.872 216.728L407.377 216.659L407.298 217.228H407.872V216.728ZM405.856 172.3H420.16V171.3H405.856V172.3ZM419.667 171.88L430.611 239.08L431.598 238.92L420.654 171.72L419.667 171.88ZM431.104 238.5H420.544V239.5H431.104V238.5ZM421.039 238.929L419.119 225.585L418.129 225.727L420.049 239.071L421.039 238.929ZM418.124 225.656V225.848H419.124V225.656H418.124ZM418.624 225.348H406.624V226.348H418.624V225.348ZM406.129 225.776L404.209 238.928L405.199 239.072L407.119 225.92L406.129 225.776ZM404.704 238.5H394.912V239.5H404.704V238.5ZM395.406 239.08L406.35 171.88L405.363 171.72L394.419 238.92L395.406 239.08ZM417.871 216.658L413.167 183.442L412.177 183.582L416.881 216.798L417.871 216.658ZM412.672 183.012H412.48V184.012H412.672V183.012ZM411.985 183.443L407.377 216.659L408.367 216.797L412.975 183.581L411.985 183.443ZM407.872 217.228H417.376V216.228H407.872V217.228ZM451.107 171.8V171.3H450.607V171.8H451.107ZM478.467 176.024L478.101 176.365L478.101 176.365L478.467 176.024ZM478.467 207.416L478.101 207.075L478.101 207.075L478.467 207.416ZM461.667 211.64V211.14H461.167V211.64H461.667ZM461.667 239V239.5H462.167V239H461.667ZM451.107 239H450.607V239.5H451.107V239ZM470.499 200.6L470.134 200.259L470.127 200.266L470.121 200.273L470.499 200.6ZM470.499 182.84L470.121 183.167L470.127 183.174L470.134 183.181L470.499 182.84ZM461.667 181.4V180.9H461.167V181.4H461.667ZM461.667 202.04H461.167V202.54H461.667V202.04ZM451.107 172.3H466.659V171.3H451.107V172.3ZM466.659 172.3C471.821 172.3 475.603 173.683 478.101 176.365L478.833 175.683C476.084 172.733 471.994 171.3 466.659 171.3V172.3ZM478.101 176.365C480.609 179.056 481.903 183.042 481.903 188.408H482.903C482.903 182.894 481.573 178.624 478.833 175.683L478.101 176.365ZM481.903 188.408V195.032H482.903V188.408H481.903ZM481.903 195.032C481.903 200.398 480.609 204.384 478.101 207.075L478.833 207.757C481.573 204.816 482.903 200.546 482.903 195.032H481.903ZM478.101 207.075C475.603 209.757 471.821 211.14 466.659 211.14V212.14C471.994 212.14 476.084 210.707 478.833 207.757L478.101 207.075ZM466.659 211.14H461.667V212.14H466.659V211.14ZM461.167 211.64V239H462.167V211.64H461.167ZM461.667 238.5H451.107V239.5H461.667V238.5ZM451.607 239V171.8H450.607V239H451.607ZM466.659 202.54C468.477 202.54 469.919 202.033 470.877 200.927L470.121 200.273C469.415 201.087 468.297 201.54 466.659 201.54V202.54ZM470.865 200.941C471.893 199.84 472.343 198.047 472.343 195.704H471.343C471.343 197.969 470.898 199.44 470.134 200.259L470.865 200.941ZM472.343 195.704V187.736H471.343V195.704H472.343ZM472.343 187.736C472.343 185.393 471.893 183.6 470.865 182.499L470.134 183.181C470.898 184 471.343 185.471 471.343 187.736H472.343ZM470.877 182.513C469.919 181.407 468.477 180.9 466.659 180.9V181.9C468.297 181.9 469.415 182.353 470.121 183.167L470.877 182.513ZM466.659 180.9H461.667V181.9H466.659V180.9ZM461.167 181.4V202.04H462.167V181.4H461.167ZM461.667 202.54H466.659V201.54H461.667V202.54ZM503.019 171.8V171.3H502.519V171.8H503.019ZM513.579 171.8H514.079V171.3H513.579V171.8ZM513.579 199.16H513.079V199.66H513.579V199.16ZM524.907 199.16V199.66H525.407V199.16H524.907ZM524.907 171.8V171.3H524.407V171.8H524.907ZM535.467 171.8H535.967V171.3H535.467V171.8ZM535.467 239V239.5H535.967V239H535.467ZM524.907 239H524.407V239.5H524.907V239ZM524.907 208.76H525.407V208.26H524.907V208.76ZM513.579 208.76V208.26H513.079V208.76H513.579ZM513.579 239V239.5H514.079V239H513.579ZM503.019 239H502.519V239.5H503.019V239ZM503.019 172.3H513.579V171.3H503.019V172.3ZM513.079 171.8V199.16H514.079V171.8H513.079ZM513.579 199.66H524.907V198.66H513.579V199.66ZM525.407 199.16V171.8H524.407V199.16H525.407ZM524.907 172.3H535.467V171.3H524.907V172.3ZM534.967 171.8V239H535.967V171.8H534.967ZM535.467 238.5H524.907V239.5H535.467V238.5ZM525.407 239V208.76H524.407V239H525.407ZM524.907 208.26H513.579V209.26H524.907V208.26ZM513.079 208.76V239H514.079V208.76H513.079ZM513.579 238.5H503.019V239.5H513.579V238.5ZM503.519 239V171.8H502.519V239H503.519ZM567.907 210.392H568.407V210.311L568.382 210.235L567.907 210.392ZM555.139 171.8V171.3H554.447L554.664 171.957L555.139 171.8ZM566.371 171.8L566.851 171.66L566.746 171.3H566.371V171.8ZM573.571 196.472L573.091 196.612L573.196 196.972H573.571V196.472ZM573.763 196.472V196.972H574.138L574.243 196.612L573.763 196.472ZM580.963 171.8V171.3H580.588L580.483 171.66L580.963 171.8ZM591.235 171.8L591.71 171.957L591.927 171.3H591.235V171.8ZM578.467 210.392L577.992 210.235L577.967 210.311V210.392H578.467ZM578.467 239V239.5H578.967V239H578.467ZM567.907 239H567.407V239.5H567.907V239ZM568.382 210.235L555.614 171.643L554.664 171.957L567.432 210.549L568.382 210.235ZM555.139 172.3H566.371V171.3H555.139V172.3ZM565.891 171.94L573.091 196.612L574.051 196.332L566.851 171.66L565.891 171.94ZM573.571 196.972H573.763V195.972H573.571V196.972ZM574.243 196.612L581.443 171.94L580.483 171.66L573.283 196.332L574.243 196.612ZM580.963 172.3H591.235V171.3H580.963V172.3ZM590.76 171.643L577.992 210.235L578.942 210.549L591.71 171.957L590.76 171.643ZM577.967 210.392V239H578.967V210.392H577.967ZM578.467 238.5H567.907V239.5H578.467V238.5ZM568.407 239V210.392H567.407V239H568.407Z" fill="black"/>
<path d="M45.0854 31.8H55.6454V59.16H66.9734V31.8H77.5334V99H66.9734V68.76H55.6454V99H45.0854V31.8ZM115.542 99.96C110.358 99.96 106.39 98.488 103.638 95.544C100.886 92.6 99.5099 88.44 99.5099 83.064V47.736C99.5099 42.36 100.886 38.2 103.638 35.256C106.39 32.312 110.358 30.84 115.542 30.84C120.726 30.84 124.694 32.312 127.446 35.256C130.198 38.2 131.574 42.36 131.574 47.736V83.064C131.574 88.44 130.198 92.6 127.446 95.544C124.694 98.488 120.726 99.96 115.542 99.96ZM115.542 90.36C119.19 90.36 121.014 88.152 121.014 83.736V47.064C121.014 42.648 119.19 40.44 115.542 40.44C111.894 40.44 110.07 42.648 110.07 47.064V83.736C110.07 88.152 111.894 90.36 115.542 90.36ZM161.476 41.4H150.436V31.8H183.076V41.4H172.036V99H161.476V41.4ZM233.324 31.8H243.884V59.16H255.212V31.8H265.772V99H255.212V68.76H243.884V99H233.324V31.8ZM303.781 99.96C298.597 99.96 294.629 98.488 291.877 95.544C289.125 92.6 287.749 88.44 287.749 83.064V47.736C287.749 42.36 289.125 38.2 291.877 35.256C294.629 32.312 298.597 30.84 303.781 30.84C308.965 30.84 312.933 32.312 315.685 35.256C318.437 38.2 319.813 42.36 319.813 47.736V83.064C319.813 88.44 318.437 92.6 315.685 95.544C312.933 98.488 308.965 99.96 303.781 99.96ZM303.781 90.36C307.429 90.36 309.253 88.152 309.253 83.736V47.064C309.253 42.648 307.429 40.44 303.781 40.44C300.133 40.44 298.309 42.648 298.309 47.064V83.736C298.309 88.152 300.133 90.36 303.781 90.36ZM357.194 99.96C352.074 99.96 348.17 98.52 345.482 95.64C342.794 92.696 341.45 88.504 341.45 83.064V31.8H352.01V83.832C352.01 86.136 352.458 87.8 353.354 88.824C354.314 89.848 355.658 90.36 357.386 90.36C359.114 90.36 360.426 89.848 361.322 88.824C362.282 87.8 362.762 86.136 362.762 83.832V31.8H372.938V83.064C372.938 88.504 371.594 92.696 368.906 95.64C366.218 98.52 362.314 99.96 357.194 99.96ZM395.339 31.8H408.587L418.859 72.024H419.051V31.8H428.459V99H417.611L404.939 49.944H404.747V99H395.339V31.8ZM451.188 31.8H467.316C472.564 31.8 476.5 33.208 479.124 36.024C481.748 38.84 483.06 42.968 483.06 48.408V82.392C483.06 87.832 481.748 91.96 479.124 94.776C476.5 97.592 472.564 99 467.316 99H451.188V31.8ZM467.124 89.4C468.852 89.4 470.164 88.888 471.06 87.864C472.02 86.84 472.5 85.176 472.5 82.872V47.928C472.5 45.624 472.02 43.96 471.06 42.936C470.164 41.912 468.852 41.4 467.124 41.4H461.748V89.4H467.124ZM518.796 99.96C513.676 99.96 509.804 98.52 507.18 95.64C504.556 92.696 503.244 88.504 503.244 83.064V79.224H513.228V83.832C513.228 88.184 515.052 90.36 518.7 90.36C520.492 90.36 521.836 89.848 522.732 88.824C523.692 87.736 524.172 86.008 524.172 83.64C524.172 80.824 523.532 78.36 522.252 76.248C520.972 74.072 518.604 71.48 515.148 68.472C510.796 64.632 507.756 61.176 506.028 58.104C504.3 54.968 503.436 51.448 503.436 47.544C503.436 42.232 504.78 38.136 507.468 35.256C510.156 32.312 514.06 30.84 519.18 30.84C524.236 30.84 528.044 32.312 530.604 35.256C533.228 38.136 534.54 42.296 534.54 47.736V50.52H524.556V47.064C524.556 44.76 524.108 43.096 523.212 42.072C522.316 40.984 521.004 40.44 519.276 40.44C515.756 40.44 513.996 42.584 513.996 46.872C513.996 49.304 514.636 51.576 515.916 53.688C517.26 55.8 519.66 58.36 523.116 61.368C527.532 65.208 530.572 68.696 532.236 71.832C533.9 74.968 534.732 78.648 534.732 82.872C534.732 88.376 533.356 92.6 530.604 95.544C527.916 98.488 523.98 99.96 518.796 99.96Z" fill="white"/>
<path d="M45.0854 31.8V31.3H44.5854V31.8H45.0854ZM55.6454 31.8H56.1454V31.3H55.6454V31.8ZM55.6454 59.16H55.1454V59.66H55.6454V59.16ZM66.9734 59.16V59.66H67.4734V59.16H66.9734ZM66.9734 31.8V31.3H66.4734V31.8H66.9734ZM77.5334 31.8H78.0334V31.3H77.5334V31.8ZM77.5334 99V99.5H78.0334V99H77.5334ZM66.9734 99H66.4734V99.5H66.9734V99ZM66.9734 68.76H67.4734V68.26H66.9734V68.76ZM55.6454 68.76V68.26H55.1454V68.76H55.6454ZM55.6454 99V99.5H56.1454V99H55.6454ZM45.0854 99H44.5854V99.5H45.0854V99ZM45.0854 32.3H55.6454V31.3H45.0854V32.3ZM55.1454 31.8V59.16H56.1454V31.8H55.1454ZM55.6454 59.66H66.9734V58.66H55.6454V59.66ZM67.4734 59.16V31.8H66.4734V59.16H67.4734ZM66.9734 32.3H77.5334V31.3H66.9734V32.3ZM77.0334 31.8V99H78.0334V31.8H77.0334ZM77.5334 98.5H66.9734V99.5H77.5334V98.5ZM67.4734 99V68.76H66.4734V99H67.4734ZM66.9734 68.26H55.6454V69.26H66.9734V68.26ZM55.1454 68.76V99H56.1454V68.76H55.1454ZM55.6454 98.5H45.0854V99.5H55.6454V98.5ZM45.5854 99V31.8H44.5854V99H45.5854ZM103.638 95.544L104.003 95.2026L104.003 95.2026L103.638 95.544ZM103.638 35.256L104.003 35.5974L104.003 35.5974L103.638 35.256ZM127.446 35.256L127.081 35.5974L127.081 35.5974L127.446 35.256ZM127.446 95.544L127.081 95.2026L127.081 95.2026L127.446 95.544ZM115.542 99.46C110.454 99.46 106.635 98.0184 104.003 95.2026L103.273 95.8854C106.144 98.9576 110.261 100.46 115.542 100.46V99.46ZM104.003 95.2026C101.363 92.3786 100.01 88.3565 100.01 83.064H99.0099C99.0099 88.5235 100.408 92.8214 103.273 95.8854L104.003 95.2026ZM100.01 83.064V47.736H99.0099V83.064H100.01ZM100.01 47.736C100.01 42.4435 101.363 38.4214 104.003 35.5974L103.273 34.9146C100.408 37.9786 99.0099 42.2765 99.0099 47.736H100.01ZM104.003 35.5974C106.635 32.7816 110.454 31.34 115.542 31.34V30.34C110.261 30.34 106.144 31.8424 103.273 34.9146L104.003 35.5974ZM115.542 31.34C120.629 31.34 124.448 32.7816 127.081 35.5974L127.811 34.9146C124.939 31.8424 120.822 30.34 115.542 30.34V31.34ZM127.081 35.5974C129.72 38.4214 131.074 42.4435 131.074 47.736H132.074C132.074 42.2765 130.675 37.9786 127.811 34.9146L127.081 35.5974ZM131.074 47.736V83.064H132.074V47.736H131.074ZM131.074 83.064C131.074 88.3565 129.72 92.3786 127.081 95.2026L127.811 95.8854C130.675 92.8214 132.074 88.5235 132.074 83.064H131.074ZM127.081 95.2026C124.448 98.0184 120.629 99.46 115.542 99.46V100.46C120.822 100.46 124.939 98.9576 127.811 95.8854L127.081 95.2026ZM115.542 90.86C117.471 90.86 118.999 90.2717 120.031 89.0224C121.048 87.7915 121.514 86.0003 121.514 83.736H120.514C120.514 85.8877 120.068 87.4085 119.26 88.3856C118.468 89.3443 117.261 89.86 115.542 89.86V90.86ZM121.514 83.736V47.064H120.514V83.736H121.514ZM121.514 47.064C121.514 44.7997 121.048 43.0085 120.031 41.7776C118.999 40.5283 117.471 39.94 115.542 39.94V40.94C117.261 40.94 118.468 41.4557 119.26 42.4144C120.068 43.3915 120.514 44.9123 120.514 47.064H121.514ZM115.542 39.94C113.613 39.94 112.084 40.5283 111.052 41.7776C110.036 43.0085 109.57 44.7997 109.57 47.064H110.57C110.57 44.9123 111.016 43.3915 111.823 42.4144C112.615 41.4557 113.823 40.94 115.542 40.94V39.94ZM109.57 47.064V83.736H110.57V47.064H109.57ZM109.57 83.736C109.57 86.0003 110.036 87.7915 111.052 89.0224C112.084 90.2717 113.613 90.86 115.542 90.86V89.86C113.823 89.86 112.615 89.3443 111.823 88.3856C111.016 87.4085 110.57 85.8877 110.57 83.736H109.57ZM161.476 41.4H161.976V40.9H161.476V41.4ZM150.436 41.4H149.936V41.9H150.436V41.4ZM150.436 31.8V31.3H149.936V31.8H150.436ZM183.076 31.8H183.576V31.3H183.076V31.8ZM183.076 41.4V41.9H183.576V41.4H183.076ZM172.036 41.4V40.9H171.536V41.4H172.036ZM172.036 99V99.5H172.536V99H172.036ZM161.476 99H160.976V99.5H161.476V99ZM161.476 40.9H150.436V41.9H161.476V40.9ZM150.936 41.4V31.8H149.936V41.4H150.936ZM150.436 32.3H183.076V31.3H150.436V32.3ZM182.576 31.8V41.4H183.576V31.8H182.576ZM183.076 40.9H172.036V41.9H183.076V40.9ZM171.536 41.4V99H172.536V41.4H171.536ZM172.036 98.5H161.476V99.5H172.036V98.5ZM161.976 99V41.4H160.976V99H161.976ZM233.324 31.8V31.3H232.824V31.8H233.324ZM243.884 31.8H244.384V31.3H243.884V31.8ZM243.884 59.16H243.384V59.66H243.884V59.16ZM255.212 59.16V59.66H255.712V59.16H255.212ZM255.212 31.8V31.3H254.712V31.8H255.212ZM265.772 31.8H266.272V31.3H265.772V31.8ZM265.772 99V99.5H266.272V99H265.772ZM255.212 99H254.712V99.5H255.212V99ZM255.212 68.76H255.712V68.26H255.212V68.76ZM243.884 68.76V68.26H243.384V68.76H243.884ZM243.884 99V99.5H244.384V99H243.884ZM233.324 99H232.824V99.5H233.324V99ZM233.324 32.3H243.884V31.3H233.324V32.3ZM243.384 31.8V59.16H244.384V31.8H243.384ZM243.884 59.66H255.212V58.66H243.884V59.66ZM255.712 59.16V31.8H254.712V59.16H255.712ZM255.212 32.3H265.772V31.3H255.212V32.3ZM265.272 31.8V99H266.272V31.8H265.272ZM265.772 98.5H255.212V99.5H265.772V98.5ZM255.712 99V68.76H254.712V99H255.712ZM255.212 68.26H243.884V69.26H255.212V68.26ZM243.384 68.76V99H244.384V68.76H243.384ZM243.884 98.5H233.324V99.5H243.884V98.5ZM233.824 99V31.8H232.824V99H233.824ZM291.877 95.544L292.242 95.2026L292.242 95.2026L291.877 95.544ZM291.877 35.256L292.242 35.5974L292.242 35.5974L291.877 35.256ZM315.685 35.256L315.319 35.5974L315.319 35.5974L315.685 35.256ZM315.685 95.544L315.319 95.2026L315.319 95.2026L315.685 95.544ZM303.781 99.46C298.693 99.46 294.874 98.0184 292.242 95.2026L291.511 95.8854C294.383 98.9576 298.5 100.46 303.781 100.46V99.46ZM292.242 95.2026C289.602 92.3786 288.249 88.3565 288.249 83.064H287.249C287.249 88.5235 288.647 92.8214 291.511 95.8854L292.242 95.2026ZM288.249 83.064V47.736H287.249V83.064H288.249ZM288.249 47.736C288.249 42.4435 289.602 38.4214 292.242 35.5974L291.511 34.9146C288.647 37.9786 287.249 42.2765 287.249 47.736H288.249ZM292.242 35.5974C294.874 32.7816 298.693 31.34 303.781 31.34V30.34C298.5 30.34 294.383 31.8424 291.511 34.9146L292.242 35.5974ZM303.781 31.34C308.868 31.34 312.687 32.7816 315.319 35.5974L316.05 34.9146C313.178 31.8424 309.061 30.34 303.781 30.34V31.34ZM315.319 35.5974C317.959 38.4214 319.313 42.4435 319.313 47.736H320.313C320.313 42.2765 318.914 37.9786 316.05 34.9146L315.319 35.5974ZM319.313 47.736V83.064H320.313V47.736H319.313ZM319.313 83.064C319.313 88.3565 317.959 92.3786 315.319 95.2026L316.05 95.8854C318.914 92.8214 320.313 88.5235 320.313 83.064H319.313ZM315.319 95.2026C312.687 98.0184 308.868 99.46 303.781 99.46V100.46C309.061 100.46 313.178 98.9576 316.05 95.8854L315.319 95.2026ZM303.781 90.86C305.71 90.86 307.238 90.2717 308.27 89.0224C309.287 87.7915 309.753 86.0003 309.753 83.736H308.753C308.753 85.8877 308.306 87.4085 307.499 88.3856C306.707 89.3443 305.5 89.86 303.781 89.86V90.86ZM309.753 83.736V47.064H308.753V83.736H309.753ZM309.753 47.064C309.753 44.7997 309.287 43.0085 308.27 41.7776C307.238 40.5283 305.71 39.94 303.781 39.94V40.94C305.5 40.94 306.707 41.4557 307.499 42.4144C308.306 43.3915 308.753 44.9123 308.753 47.064H309.753ZM303.781 39.94C301.852 39.94 300.323 40.5283 299.291 41.7776C298.274 43.0085 297.809 44.7997 297.809 47.064H298.809C298.809 44.9123 299.255 43.3915 300.062 42.4144C300.854 41.4557 302.062 40.94 303.781 40.94V39.94ZM297.809 47.064V83.736H298.809V47.064H297.809ZM297.809 83.736C297.809 86.0003 298.274 87.7915 299.291 89.0224C300.323 90.2717 301.852 90.86 303.781 90.86V89.86C302.062 89.86 300.854 89.3443 300.062 88.3856C299.255 87.4085 298.809 85.8877 298.809 83.736H297.809ZM345.482 95.64L345.113 95.9772L345.117 95.9812L345.482 95.64ZM341.45 31.8V31.3H340.95V31.8H341.45ZM352.01 31.8H352.51V31.3H352.01V31.8ZM353.354 88.824L352.978 89.1533L352.983 89.1597L352.989 89.166L353.354 88.824ZM361.322 88.824L360.957 88.482L360.951 88.4883L360.946 88.4947L361.322 88.824ZM362.762 31.8V31.3H362.262V31.8H362.762ZM372.938 31.8H373.438V31.3H372.938V31.8ZM368.906 95.64L369.272 95.9812L369.275 95.9771L368.906 95.64ZM357.194 99.46C352.169 99.46 348.415 98.0494 345.848 95.2988L345.117 95.9812C347.925 98.9906 351.979 100.46 357.194 100.46V99.46ZM345.851 95.3029C343.274 92.4801 341.95 88.4252 341.95 83.064H340.95C340.95 88.5828 342.314 92.9119 345.113 95.9771L345.851 95.3029ZM341.95 83.064V31.8H340.95V83.064H341.95ZM341.45 32.3H352.01V31.3H341.45V32.3ZM351.51 31.8V83.832H352.51V31.8H351.51ZM351.51 83.832C351.51 86.1797 351.963 87.9931 352.978 89.1533L353.73 88.4947C352.954 87.6069 352.51 86.0923 352.51 83.832H351.51ZM352.989 89.166C354.065 90.3133 355.554 90.86 357.386 90.86V89.86C355.762 89.86 354.563 89.3827 353.719 88.482L352.989 89.166ZM357.386 90.86C359.217 90.86 360.683 90.3137 361.698 89.1533L360.946 88.4947C360.169 89.3823 359.012 89.86 357.386 89.86V90.86ZM361.687 89.166C362.775 88.0054 363.262 86.1862 363.262 83.832H362.262C362.262 86.0858 361.789 87.5946 360.957 88.482L361.687 89.166ZM363.262 83.832V31.8H362.262V83.832H363.262ZM362.762 32.3H372.938V31.3H362.762V32.3ZM372.438 31.8V83.064H373.438V31.8H372.438ZM372.438 83.064C372.438 88.4252 371.114 92.4801 368.537 95.3029L369.275 95.9771C372.074 92.9119 373.438 88.5828 373.438 83.064H372.438ZM368.541 95.2988C365.973 98.0494 362.219 99.46 357.194 99.46V100.46C362.409 100.46 366.463 98.9906 369.272 95.9812L368.541 95.2988ZM395.339 31.8V31.3H394.839V31.8H395.339ZM408.587 31.8L409.072 31.6763L408.975 31.3H408.587V31.8ZM418.859 72.024L418.375 72.1477L418.471 72.524H418.859V72.024ZM419.051 72.024V72.524H419.551V72.024H419.051ZM419.051 31.8V31.3H418.551V31.8H419.051ZM428.459 31.8H428.959V31.3H428.459V31.8ZM428.459 99V99.5H428.959V99H428.459ZM417.611 99L417.127 99.1251L417.224 99.5H417.611V99ZM404.939 49.944L405.423 49.8189L405.326 49.444H404.939V49.944ZM404.747 49.944V49.444H404.247V49.944H404.747ZM404.747 99V99.5H405.247V99H404.747ZM395.339 99H394.839V99.5H395.339V99ZM395.339 32.3H408.587V31.3H395.339V32.3ZM408.103 31.9237L418.375 72.1477L419.344 71.9003L409.072 31.6763L408.103 31.9237ZM418.859 72.524H419.051V71.524H418.859V72.524ZM419.551 72.024V31.8H418.551V72.024H419.551ZM419.051 32.3H428.459V31.3H419.051V32.3ZM427.959 31.8V99H428.959V31.8H427.959ZM428.459 98.5H417.611V99.5H428.459V98.5ZM418.095 98.8749L405.423 49.8189L404.455 50.0691L417.127 99.1251L418.095 98.8749ZM404.939 49.444H404.747V50.444H404.939V49.444ZM404.247 49.944V99H405.247V49.944H404.247ZM404.747 98.5H395.339V99.5H404.747V98.5ZM395.839 99V31.8H394.839V99H395.839ZM451.188 31.8V31.3H450.688V31.8H451.188ZM479.124 36.024L478.758 36.3649L478.758 36.3649L479.124 36.024ZM451.188 99H450.688V99.5H451.188V99ZM471.06 87.864L470.695 87.522L470.689 87.5283L470.684 87.5347L471.06 87.864ZM471.06 42.936L470.684 43.2652L470.689 43.2717L470.695 43.278L471.06 42.936ZM461.748 41.4V40.9H461.248V41.4H461.748ZM461.748 89.4H461.248V89.9H461.748V89.4ZM451.188 32.3H467.316V31.3H451.188V32.3ZM467.316 32.3C472.477 32.3 476.259 33.6831 478.758 36.3649L479.49 35.6831C476.741 32.7329 472.65 31.3 467.316 31.3V32.3ZM478.758 36.3649C481.266 39.0561 482.56 43.0422 482.56 48.408H483.56C483.56 42.8938 482.23 38.6239 479.49 35.6831L478.758 36.3649ZM482.56 48.408V82.392H483.56V48.408H482.56ZM482.56 82.392C482.56 87.7578 481.266 91.7439 478.758 94.4351L479.49 95.1169C482.23 92.1761 483.56 87.9062 483.56 82.392H482.56ZM478.758 94.4351C476.259 97.1169 472.477 98.5 467.316 98.5V99.5C472.65 99.5 476.741 98.0671 479.49 95.1169L478.758 94.4351ZM467.316 98.5H451.188V99.5H467.316V98.5ZM451.688 99V31.8H450.688V99H451.688ZM467.124 89.9C468.954 89.9 470.421 89.3537 471.436 88.1933L470.684 87.5347C469.907 88.4223 468.75 88.9 467.124 88.9V89.9ZM471.425 88.206C472.513 87.0454 473 85.2262 473 82.872H472C472 85.1258 471.527 86.6346 470.695 87.522L471.425 88.206ZM473 82.872V47.928H472V82.872H473ZM473 47.928C473 45.5738 472.513 43.7546 471.425 42.594L470.695 43.278C471.527 44.1654 472 45.6742 472 47.928H473ZM471.436 42.6067C470.421 41.4463 468.954 40.9 467.124 40.9V41.9C468.75 41.9 469.907 42.3777 470.684 43.2652L471.436 42.6067ZM467.124 40.9H461.748V41.9H467.124V40.9ZM461.248 41.4V89.4H462.248V41.4H461.248ZM461.748 89.9H467.124V88.9H461.748V89.9ZM507.18 95.64L506.807 95.9727L506.81 95.9767L507.18 95.64ZM503.244 79.224V78.724H502.744V79.224H503.244ZM513.228 79.224H513.728V78.724H513.228V79.224ZM522.732 88.824L522.357 88.4932L522.356 88.4947L522.732 88.824ZM522.252 76.248L521.821 76.5015L521.824 76.5071L522.252 76.248ZM515.148 68.472L514.817 68.8469L514.82 68.8492L515.148 68.472ZM506.028 58.104L505.59 58.3453L505.592 58.3491L506.028 58.104ZM507.468 35.256L507.833 35.5972L507.837 35.5931L507.468 35.256ZM530.604 35.256L530.226 35.5842L530.234 35.5927L530.604 35.256ZM534.54 50.52V51.02H535.04V50.52H534.54ZM524.556 50.52H524.056V51.02H524.556V50.52ZM523.212 42.072L522.826 42.3898L522.831 42.3956L522.836 42.4012L523.212 42.072ZM515.916 53.688L515.488 53.9472L515.494 53.9564L515.916 53.688ZM523.116 61.368L522.788 61.7452L522.788 61.7453L523.116 61.368ZM532.236 71.832L531.794 72.0664L531.794 72.0664L532.236 71.832ZM530.604 95.544L530.239 95.2025L530.235 95.2069L530.604 95.544ZM518.796 99.46C513.77 99.46 510.051 98.0492 507.549 95.3033L506.81 95.9767C509.556 98.9908 513.582 100.46 518.796 100.46V99.46ZM507.553 95.3073C505.037 92.4846 503.744 88.428 503.744 83.064H502.744C502.744 88.58 504.075 92.9074 506.807 95.9727L507.553 95.3073ZM503.744 83.064V79.224H502.744V83.064H503.744ZM503.244 79.724H513.228V78.724H503.244V79.724ZM512.728 79.224V83.832H513.728V79.224H512.728ZM512.728 83.832C512.728 86.0657 513.194 87.8341 514.213 89.0492C515.245 90.2812 516.773 90.86 518.7 90.86V89.86C516.978 89.86 515.77 89.3508 514.979 88.4068C514.174 87.4459 513.728 85.9503 513.728 83.832H512.728ZM518.7 90.86C520.588 90.86 522.089 90.3176 523.108 89.1533L522.356 88.4947C521.582 89.3784 520.396 89.86 518.7 89.86V90.86ZM523.107 89.1548C524.185 87.9329 524.672 86.0577 524.672 83.64H523.672C523.672 85.9583 523.199 87.5391 522.357 88.4932L523.107 89.1548ZM524.672 83.64C524.672 80.7457 524.013 78.1895 522.679 75.9888L521.824 76.5071C523.051 78.5305 523.672 80.9023 523.672 83.64H524.672ZM522.683 75.9945C521.362 73.7486 518.945 71.1143 515.476 68.0948L514.82 68.8492C518.262 71.8456 520.582 74.3954 521.821 76.5015L522.683 75.9945ZM515.479 68.0971C511.145 64.2734 508.152 60.8606 506.464 57.8589L505.592 58.3491C507.36 61.4914 510.447 64.9906 514.817 68.8469L515.479 68.0971ZM506.466 57.8627C504.782 54.8072 503.936 51.3714 503.936 47.544H502.936C502.936 51.5246 503.818 55.1288 505.59 58.3453L506.466 57.8627ZM503.936 47.544C503.936 42.3137 505.258 38.3563 507.833 35.5972L507.102 34.9148C504.302 37.9157 502.936 42.1503 502.936 47.544H503.936ZM507.837 35.5931C510.405 32.7805 514.158 31.34 519.18 31.34V30.34C513.962 30.34 509.907 31.8434 507.099 34.9189L507.837 35.5931ZM519.18 31.34C524.137 31.34 527.788 32.7796 530.227 35.5841L530.981 34.9279C528.3 31.8444 524.335 30.34 519.18 30.34V31.34ZM530.234 35.5927C532.746 38.3497 534.04 42.3711 534.04 47.736H535.04C535.04 42.2209 533.71 37.9223 530.973 34.9193L530.234 35.5927ZM534.04 47.736V50.52H535.04V47.736H534.04ZM534.54 50.02H524.556V51.02H534.54V50.02ZM525.056 50.52V47.064H524.056V50.52H525.056ZM525.056 47.064C525.056 44.7163 524.603 42.9029 523.588 41.7427L522.836 42.4012C523.613 43.2891 524.056 44.8037 524.056 47.064H525.056ZM523.598 41.7541C522.586 40.525 521.116 39.94 519.276 39.94V40.94C520.892 40.94 522.046 41.443 522.826 42.3898L523.598 41.7541ZM519.276 39.94C517.41 39.94 515.929 40.513 514.929 41.7308C513.945 42.9296 513.496 44.6723 513.496 46.872H514.496C514.496 44.7837 514.926 43.3104 515.702 42.3652C516.463 41.439 517.622 40.94 519.276 40.94V39.94ZM513.496 46.872C513.496 49.3969 514.162 51.7583 515.488 53.9471L516.343 53.4288C515.11 51.3937 514.496 49.2111 514.496 46.872H513.496ZM515.494 53.9564C516.877 56.1296 519.32 58.7271 522.788 61.7452L523.444 60.9908C520 57.9929 517.643 55.4704 516.338 53.4196L515.494 53.9564ZM522.788 61.7453C527.184 65.5677 530.172 69.0084 531.794 72.0664L532.678 71.5976C530.972 68.3835 527.88 64.8483 523.444 60.9907L522.788 61.7453ZM531.794 72.0664C533.413 75.1177 534.232 78.7143 534.232 82.872H535.232C535.232 78.5817 534.387 74.8183 532.678 71.5976L531.794 72.0664ZM534.232 82.872C534.232 88.2962 532.877 92.3806 530.239 95.2026L530.969 95.8854C533.835 92.8194 535.232 88.4558 535.232 82.872H534.232ZM530.235 95.2069C527.668 98.0182 523.884 99.46 518.796 99.46V100.46C524.076 100.46 528.164 98.9578 530.973 95.8811L530.235 95.2069Z" fill="black"/>
</svg>
