<svg width="491" height="175" viewBox="0 0 491 175" fill="none" xmlns="http://www.w3.org/2000/svg">
<path d="M18.288 43.6H1.728V29.2H50.688V43.6H34.128V130H18.288V43.6ZM58.3571 29.2H74.1971V70.24H91.1891V29.2H107.029V130H91.1891V84.64H74.1971V130H58.3571V29.2ZM131.066 29.2H152.522L168.938 130H153.098L150.218 109.984V110.272H132.218L129.338 130H114.65L131.066 29.2ZM148.346 96.592L141.29 46.768H141.002L134.09 96.592H148.346ZM176.623 29.2H196.495L211.903 89.536H212.191V29.2H226.303V130H210.031L191.023 56.416H190.735V130H176.623V29.2ZM238.076 29.2H253.916V71.68L274.076 29.2H289.916L271.052 66.208L290.204 130H273.644L260.252 85.072L253.916 97.888V130H238.076V29.2ZM335.307 87.088L316.155 29.2H333.003L343.803 66.208H344.091L354.891 29.2H370.299L351.147 87.088V130H335.307V87.088ZM397.8 131.44C390.024 131.44 384.072 129.232 379.944 124.816C375.816 120.4 373.752 114.16 373.752 106.096V53.104C373.752 45.04 375.816 38.8 379.944 34.384C384.072 29.968 390.024 27.76 397.8 27.76C405.576 27.76 411.528 29.968 415.656 34.384C419.784 38.8 421.848 45.04 421.848 53.104V106.096C421.848 114.16 419.784 120.4 415.656 124.816C411.528 129.232 405.576 131.44 397.8 131.44ZM397.8 117.04C403.272 117.04 406.008 113.728 406.008 107.104V52.096C406.008 45.472 403.272 42.16 397.8 42.16C392.328 42.16 389.592 45.472 389.592 52.096V107.104C389.592 113.728 392.328 117.04 397.8 117.04ZM455.6 131.44C447.92 131.44 442.064 129.28 438.032 124.96C434 120.544 431.984 114.256 431.984 106.096V29.2H447.824V107.248C447.824 110.704 448.496 113.2 449.84 114.736C451.28 116.272 453.296 117.04 455.888 117.04C458.48 117.04 460.448 116.272 461.792 114.736C463.232 113.2 463.952 110.704 463.952 107.248V29.2H479.216V106.096C479.216 114.256 477.2 120.544 473.168 124.96C469.136 129.28 463.28 131.44 455.6 131.44Z" fill="#7F23C7"/>
<path d="M23.788 45.1H7.228V30.7H56.188V45.1H39.628V131.5H23.788V45.1ZM63.8571 30.7H79.6971V71.74H96.6891V30.7H112.529V131.5H96.6891V86.14H79.6971V131.5H63.8571V30.7ZM136.566 30.7H158.022L174.438 131.5H158.598L155.718 111.484V111.772H137.718L134.838 131.5H120.15L136.566 30.7ZM153.846 98.092L146.79 48.268H146.502L139.59 98.092H153.846ZM182.123 30.7H201.995L217.403 91.036H217.691V30.7H231.803V131.5H215.531L196.523 57.916H196.235V131.5H182.123V30.7ZM243.576 30.7H259.416V73.18L279.576 30.7H295.416L276.552 67.708L295.704 131.5H279.144L265.752 86.572L259.416 99.388V131.5H243.576V30.7ZM340.807 88.588L321.655 30.7H338.503L349.303 67.708H349.591L360.391 30.7H375.799L356.647 88.588V131.5H340.807V88.588ZM403.3 132.94C395.524 132.94 389.572 130.732 385.444 126.316C381.316 121.9 379.252 115.66 379.252 107.596V54.604C379.252 46.54 381.316 40.3 385.444 35.884C389.572 31.468 395.524 29.26 403.3 29.26C411.076 29.26 417.028 31.468 421.156 35.884C425.284 40.3 427.348 46.54 427.348 54.604V107.596C427.348 115.66 425.284 121.9 421.156 126.316C417.028 130.732 411.076 132.94 403.3 132.94ZM403.3 118.54C408.772 118.54 411.508 115.228 411.508 108.604V53.596C411.508 46.972 408.772 43.66 403.3 43.66C397.828 43.66 395.092 46.972 395.092 53.596V108.604C395.092 115.228 397.828 118.54 403.3 118.54ZM461.1 132.94C453.42 132.94 447.564 130.78 443.532 126.46C439.5 122.044 437.484 115.756 437.484 107.596V30.7H453.324V108.748C453.324 112.204 453.996 114.7 455.34 116.236C456.78 117.772 458.796 118.54 461.388 118.54C463.98 118.54 465.948 117.772 467.292 116.236C468.732 114.7 469.452 112.204 469.452 108.748V30.7H484.716V107.596C484.716 115.756 482.7 122.044 478.668 126.46C474.636 130.78 468.78 132.94 461.1 132.94Z" fill="black"/>
</svg>
